<svg width="128" height="128" viewBox="0 0 128 128" fill="none" xmlns="http://www.w3.org/2000/svg">
  <defs>
    <linearGradient id="bg3" x1="16" y1="10" x2="112" y2="118" gradientUnits="userSpaceOnUse">
      <stop stop-color="#B45309"/>
      <stop offset="1" stop-color="#F59E0B"/>
    </linearGradient>
  </defs>
  <rect width="128" height="128" rx="28" fill="url(#bg3)"/>
  <circle cx="95" cy="28" r="15" fill="#FEF3C7" fill-opacity="0.4"/>
  <path d="M14 102C26 84 44 74 64 74C84 74 102 84 114 102V128H14V102Z" fill="#422006"/>
  <circle cx="64" cy="48" r="22" fill="#FFF7ED"/>
  <path d="M46 80C51 73 57 69 64 69C71 69 77 73 82 80V98H46V80Z" fill="#FDE68A"/>
  <path d="M44 37C50 28 57 24 64 24C71 24 78 28 84 37C79 35 73 34 64 34C55 34 49 35 44 37Z" fill="#7C2D12"/>
  <path d="M20 18H48L35 38L20 18Z" fill="#FCD34D" fill-opacity="0.85"/>
  <circle cx="29" cy="93" r="12" fill="#92400E"/>
  <path d="M21 93C21 88 25 84 29 84C34 84 38 88 38 93C38 98 34 102 29 102C25 102 21 98 21 93Z" stroke="#FEF3C7" stroke-width="3"/>
  <path d="M17 93H41M29 81V105" stroke="#FEF3C7" stroke-width="2.5" stroke-linecap="round"/>
</svg>
